# xmcd
# 
# Track frame offsets:
#     150
#     18437
#     39902
#     63956
#     87862
#     110071
#     134040
#     154589
#     176041
#     198522
# 
# Disc length: 2837
# 
# Revision: 0
# Processed by: cddbd v1.5.2PL0 Copyright (c) Steve Scherf et al.
# Submitted via: BonkEnc v1.0
# 
DISCID=840b130a
DTITLE=Blues Gangsters - Shades go down
DYEAR=2006
DGENRE=Blues
TTITLE0=Behind The Sun
TTITLE1=Come on
TTITLE2=Come On In My Kitchen
TTITLE3=Kick Em In Da Back
TTITLE4=Everybody Knows
TTITLE5=Shades Go Down
TTITLE6=Cry
TTITLE7=Keep On Riding
TTITLE8=Place to Hide
TTITLE9=Scared
EXTD=
EXTT0=
EXTT1=
EXTT2=
EXTT3=
EXTT4=
EXTT5=
EXTT6=
EXTT7=
EXTT8=
EXTT9=
PLAYORDER=
